HIERARCHY
ROOT Root
{
  OFFSET 0.0 0.0 0.0
  CHANNELS 6 Xposition Yposition Zposition Zrotation Yrotation Xrotation
  JOINT Hips
  {
    OFFSET 0.0 100.0 0.0
    CHANNELS 6 Xposition Yposition Zposition Zrotation Yrotation Xrotation
    JOINT Spine1
    {
      OFFSET 5.003913 -0.037094 -0.013727
      CHANNELS 3 Zrotation Yrotation Xrotation
      JOINT Spine2
      {
        OFFSET 7.125363 -1e-06 0.0
        CHANNELS 3 Zrotation Yrotation Xrotation
        JOINT Chest
        {
          OFFSET 7.594027 1e-06 0.0
          CHANNELS 3 Zrotation Yrotation Xrotation
          JOINT Neck1
          {
            OFFSET 26.313086 -0.460272 -0.181672
            CHANNELS 3 Zrotation Yrotation Xrotation
            JOINT Neck2
            {
              OFFSET 8.045911 0.0 0.0
              CHANNELS 3 Zrotation Yrotation Xrotation
              JOINT Head
              {
                OFFSET 6.432774 0.0 0.0
                CHANNELS 3 Zrotation Yrotation Xrotation
                JOINT HeadEnd
                {
                  OFFSET 16.169773 0.06451 0.00362
                  CHANNELS 3 Zrotation Yrotation Xrotation
                }
                JOINT Jaw
                {
                  OFFSET 0.108741 3.12938 0.002639
                  CHANNELS 3 Zrotation Yrotation Xrotation
                }
                JOINT LeftEye
                {
                  OFFSET 4.45173 8.166359 3.206392
                  CHANNELS 3 Zrotation Yrotation Xrotation
                }
                JOINT RightEye
                {
                  OFFSET 4.436895 8.135758 -3.222429
                  CHANNELS 3 Zrotation Yrotation Xrotation
                }
              }
            }
          }
          JOINT LeftShoulder
          {
            OFFSET 23.218927 5.195579 1.621656
            CHANNELS 3 Zrotation Yrotation Xrotation
            JOINT LeftArm
            {
              OFFSET 15.902118 2e-06 -2e-06
              CHANNELS 3 Zrotation Yrotation Xrotation
              JOINT LeftForeArm
              {
                OFFSET 28.739307 0.0 -1e-06
                CHANNELS 3 Zrotation Yrotation Xrotation
                JOINT LeftHand
                {
                  OFFSET 27.093981 -4e-06 0.0
                  CHANNELS 3 Zrotation Yrotation Xrotation
                  JOINT LeftHandThumb1
                  {
                    OFFSET 2.276781 3.380274 0.83384
                    CHANNELS 3 Zrotation Yrotation Xrotation
                    JOINT LeftHandThumb2
                    {
                      OFFSET 4.705309 -1e-06 -1e-06
                      CHANNELS 3 Zrotation Yrotation Xrotation
                      JOINT LeftHandThumb3
                      {
                        OFFSET 2.798515 0.0 3e-06
                        CHANNELS 3 Zrotation Yrotation Xrotation
                        JOINT LeftHandThumbEnd
                        {
                          OFFSET 3.180793 4e-06 -4e-06
                          CHANNELS 3 Zrotation Yrotation Xrotation
                        }
                      }
                    }
                  }
                  JOINT LeftHandIndex1
                  {
                    OFFSET 3.247786 2.352677 0.137192
                    CHANNELS 3 Zrotation Yrotation Xrotation
                    JOINT LeftHandIndex2
                    {
                      OFFSET 6.367095 1e-06 0.0
                      CHANNELS 3 Zrotation Yrotation Xrotation
                      JOINT LeftHandIndex3
                      {
                        OFFSET 3.662364 0.0 0.0
                        CHANNELS 3 Zrotation Yrotation Xrotation
                        JOINT LeftHandIndex4
                        {
                          OFFSET 2.329242 4e-06 -4e-06
                          CHANNELS 3 Zrotation Yrotation Xrotation
                          JOINT LeftHandIndexEnd
                          {
                            OFFSET 2.767823 1e-06 0.0
                            CHANNELS 3 Zrotation Yrotation Xrotation
                          }
                        }
                      }
                    }
                  }
                  JOINT LeftHandMiddle1
                  {
                    OFFSET 3.163612 0.945023 -0.406112
                    CHANNELS 3 Zrotation Yrotation Xrotation
                    JOINT LeftHandMiddle2
                    {
                      OFFSET 6.276789 3e-06 0.0
                      CHANNELS 3 Zrotation Yrotation Xrotation
                      JOINT LeftHandMiddle3
                      {
                        OFFSET 4.35652 -1e-06 4e-06
                        CHANNELS 3 Zrotation Yrotation Xrotation
                        JOINT LeftHandMiddle4
                        {
                          OFFSET 2.996877 0.0 8e-06
                          CHANNELS 3 Zrotation Yrotation Xrotation
                          JOINT LeftHandMiddleEnd
                          {
                            OFFSET 2.323256 3e-06 -4e-06
                            CHANNELS 3 Zrotation Yrotation Xrotation
                          }
                        }
                      }
                    }
                  }
                  JOINT LeftHandRing1
                  {
                    OFFSET 2.882606 -0.309162 0.107445
                    CHANNELS 3 Zrotation Yrotation Xrotation
                    JOINT LeftHandRing2
                    {
                      OFFSET 6.033198 0.0 4e-06
                      CHANNELS 3 Zrotation Yrotation Xrotation
                      JOINT LeftHandRing3
                      {
                        OFFSET 4.350578 3e-06 0.0
                        CHANNELS 3 Zrotation Yrotation Xrotation
                        JOINT LeftHandRing4
                        {
                          OFFSET 2.651321 2e-06 -7e-06
                          CHANNELS 3 Zrotation Yrotation Xrotation
                          JOINT LeftHandRingEnd
                          {
                            OFFSET 1.937663 1e-06 -4e-06
                            CHANNELS 3 Zrotation Yrotation Xrotation
                          }
                        }
                      }
                    }
                  }
                  JOINT LeftHandPinky1
                  {
                    OFFSET 2.865315 -1.525436 0.575687
                    CHANNELS 3 Zrotation Yrotation Xrotation
                    JOINT LeftHandPinky2
                    {
                      OFFSET 5.54936 1e-06 -8e-06
                      CHANNELS 3 Zrotation Yrotation Xrotation
                      JOINT LeftHandPinky3
                      {
                        OFFSET 3.070974 0.0 -4e-06
                        CHANNELS 3 Zrotation Yrotation Xrotation
                        JOINT LeftHandPinky4
                        {
                          OFFSET 1.549672 1e-06 0.0
                          CHANNELS 3 Zrotation Yrotation Xrotation
                          JOINT LeftHandPinkyEnd
                          {
                            OFFSET 1.952123 0.0 0.0
                            CHANNELS 3 Zrotation Yrotation Xrotation
                          }
                        }
                      }
                    }
                  }
                }
              }
            }
          }
          JOINT RightShoulder
          {
            OFFSET 23.161716 5.296122 -1.380114
            CHANNELS 3 Zrotation Yrotation Xrotation
            JOINT RightArm
            {
              OFFSET -16.027195 -2e-06 1.1e-05
              CHANNELS 3 Zrotation Yrotation Xrotation
              JOINT RightForeArm
              {
                OFFSET -28.736639 4e-06 2e-06
                CHANNELS 3 Zrotation Yrotation Xrotation
                JOINT RightHand
                {
                  OFFSET -27.133619 6e-06 0.0
                  CHANNELS 3 Zrotation Yrotation Xrotation
                  JOINT RightHandThumb1
                  {
                    OFFSET -2.274328 -3.351035 -0.83067
                    CHANNELS 3 Zrotation Yrotation Xrotation
                    JOINT RightHandThumb2
                    {
                      OFFSET -4.703594 -3e-06 2e-06
                      CHANNELS 3 Zrotation Yrotation Xrotation
                      JOINT RightHandThumb3
                      {
                        OFFSET -2.794935 -4e-06 -3e-06
                        CHANNELS 3 Zrotation Yrotation Xrotation
                        JOINT RightHandThumbEnd
                        {
                          OFFSET -3.183852 4e-06 1e-06
                          CHANNELS 3 Zrotation Yrotation Xrotation
                        }
                      }
                    }
                  }
                  JOINT RightHandIndex1
                  {
                    OFFSET -3.253496 -2.33755 -0.127667
                    CHANNELS 3 Zrotation Yrotation Xrotation
                    JOINT RightHandIndex2
                    {
                      OFFSET -6.344434 0.0 0.0
                      CHANNELS 3 Zrotation Yrotation Xrotation
                      JOINT RightHandIndex3
                      {
                        OFFSET -3.654871 0.0 -8e-06
                        CHANNELS 3 Zrotation Yrotation Xrotation
                        JOINT RightHandIndex4
                        {
                          OFFSET -2.327586 -1e-06 0.0
                          CHANNELS 3 Zrotation Yrotation Xrotation
                          JOINT RightHandIndexEnd
                          {
                            OFFSET -2.770001 3e-06 8e-06
                            CHANNELS 3 Zrotation Yrotation Xrotation
                          }
                        }
                      }
                    }
                  }
                  JOINT RightHandMiddle1
                  {
                    OFFSET -3.168223 -0.944764 0.411762
                    CHANNELS 3 Zrotation Yrotation Xrotation
                    JOINT RightHandMiddle2
                    {
                      OFFSET -6.266691 -1e-06 -4e-06
                      CHANNELS 3 Zrotation Yrotation Xrotation
                      JOINT RightHandMiddle3
                      {
                        OFFSET -4.348901 0.0 0.0
                        CHANNELS 3 Zrotation Yrotation Xrotation
                        JOINT RightHandMiddle4
                        {
                          OFFSET -3.00024 2e-06 -4e-06
                          CHANNELS 3 Zrotation Yrotation Xrotation
                          JOINT RightHandMiddleEnd
                          {
                            OFFSET -2.321477 -4e-06 -4e-06
                            CHANNELS 3 Zrotation Yrotation Xrotation
                          }
                        }
                      }
                    }
                  }
                  JOINT RightHandRing1
                  {
                    OFFSET -2.885654 0.293261 -0.119232
                    CHANNELS 3 Zrotation Yrotation Xrotation
                    JOINT RightHandRing2
                    {
                      OFFSET -6.032835 -1e-06 -4e-06
                      CHANNELS 3 Zrotation Yrotation Xrotation
                      JOINT RightHandRing3
                      {
                        OFFSET -4.33881 0.0 -4e-06
                        CHANNELS 3 Zrotation Yrotation Xrotation
                        JOINT RightHandRing4
                        {
                          OFFSET -2.654903 -4e-06 -4e-06
                          CHANNELS 3 Zrotation Yrotation Xrotation
                          JOINT RightHandRingEnd
                          {
                            OFFSET -1.935122 0.0 4e-06
                            CHANNELS 3 Zrotation Yrotation Xrotation
                          }
                        }
                      }
                    }
                  }
                  JOINT RightHandPinky1
                  {
                    OFFSET -2.866241 1.503904 -0.60527
                    CHANNELS 3 Zrotation Yrotation Xrotation
                    JOINT RightHandPinky2
                    {
                      OFFSET -5.553177 -2e-06 0.0
                      CHANNELS 3 Zrotation Yrotation Xrotation
                      JOINT RightHandPinky3
                      {
                        OFFSET -3.062664 -1e-06 -4e-06
                        CHANNELS 3 Zrotation Yrotation Xrotation
                        JOINT RightHandPinky4
                        {
                          OFFSET -1.546529 2e-06 4e-06
                          CHANNELS 3 Zrotation Yrotation Xrotation
                          JOINT RightHandPinkyEnd
                          {
                            OFFSET -1.952341 0.0 -4e-06
                            CHANNELS 3 Zrotation Yrotation Xrotation
                          }
                        }
                      }
                    }
                  }
                }
              }
            }
          }
        }
      }
    }
    JOINT LeftLeg
    {
      OFFSET -8.443107 2.567604 10.043214
      CHANNELS 3 Zrotation Yrotation Xrotation
      JOINT LeftShin
      {
        OFFSET 43.229198 1e-06 -1e-06
        CHANNELS 3 Zrotation Yrotation Xrotation
        JOINT LeftFoot
        {
          OFFSET 42.298611 1e-06 1e-06
          CHANNELS 3 Zrotation Yrotation Xrotation
          JOINT LeftToeBase
          {
            OFFSET 14.165858 1e-06 0.0
            CHANNELS 3 Zrotation Yrotation Xrotation
            JOINT LeftToeEnd
            {
              OFFSET 6.7141 -0.234461 0.0
              CHANNELS 3 Zrotation Yrotation Xrotation
            }
          }
        }
      }
    }
    JOINT RightLeg
    {
      OFFSET -8.303923 2.592729 -10.047278
      CHANNELS 3 Zrotation Yrotation Xrotation
      JOINT RightShin
      {
        OFFSET -43.369682 0.0 1e-06
        CHANNELS 3 Zrotation Yrotation Xrotation
        JOINT RightFoot
        {
          OFFSET -42.260784 4e-06 2e-06
          CHANNELS 3 Zrotation Yrotation Xrotation
          JOINT RightToeBase
          {
            OFFSET -14.222245 -2e-06 -1e-06
            CHANNELS 3 Zrotation Yrotation Xrotation
            JOINT RightToeEnd
            {
              OFFSET -6.660062 0.232574 -2e-06
              CHANNELS 3 Zrotation Yrotation Xrotation
            }
          }
        }
      }
    }
  }
}
MOTION
Frames: 4
Frame Time: 0.03333333333333333
0.0 0.0 0.0 0.0 -0.0 0.0 0.029331 100.099411 0.128478 90.71051 1.093979 91.967667 -2.927199 -0.432651 -0.067043 -12.505429 -0.837958 -0.165007 17.878771 0.12231 -3.043619 34.099533 1.354664 2.200388 -2.626823 -0.479304 1.215827 -27.240154 -0.237901 -0.367298 6e-06 0.0 -0.0 0.019424 0.005425 -0.055701 0.058267 0.053239 -0.057984 0.040891 -0.043155 -0.049185 2.154598 -72.103355 15.133254 8.717436 -71.656464 -17.048004 91.215393 0.52767 0.503686 -6.56869 13.562871 -107.676079 17.636625 -26.322729 52.411182 -19.466658 -14.395592 29.410389 -2e-06 -8.774819 -2e-06 15.691751 -18.105896 6.774556 -0.609776 -1.795654 -3.889329 -4.807087 -11.046808 -2.937848 5e-06 -20.976011 -0.0 -5.019966 -25.033548 -4.031882 5e-06 0.0 1e-06 -10.634531 -5.686969 -3.565588 10.573272 -17.922949 -3.113901 3e-06 -13.821208 1e-06 -0.501775 -31.181498 -4.027014 -10.796305 -58.484936 6.726768 -13.982706 -7.150196 -2.875043 13.772724 -8.401491 -3.218241 0.347734 -34.211544 0.771657 -0.963026 -17.73337 2.621019 -1e-06 2e-06 -2e-06 -17.346411 -20.095211 -4.201782 21.757555 -1.638376 3.866426 0.0 -6.338824 0.0 -1.697587 -22.591745 -6.194005 0.0 -4e-06 -2e-06 -179.909241 -78.41539 16.861223 22.705988 -66.614967 -31.257027 90.966942 -0.598237 1.417613 -7.895241 22.967615 -101.873901 22.182117 -20.375898 49.933331 -16.701817 -16.74353 28.476542 -2e-06 -12.690602 -1e-06 16.358055 -16.276123 3.052727 -0.105919 -1.513856 -4.275883 -5.039038 -5.612871 -2.953557 4e-06 -11.020527 -1e-06 -6.111297 -15.895334 -3.840472 -1e-06 -0.0 0.0 -10.283371 -5.680288 -4.341839 11.028296 -11.302407 -2.372635 -1.38427 -14.238586 -6.320123 -0.625436 -26.924198 -3.827603 -4.781153 -49.848564 -1.935739 -13.708527 -7.363476 -3.720941 18.141153 -14.052744 -3.242676 9e-06 -18.787271 -1e-06 -0.429713 -8.456044 2.555504 -0.0 -1e-06 0.0 -15.923532 -20.094484 -5.473588 30.419214 -7.19083 1.735925 3e-06 -8.162927 1e-06 -1.861902 -22.861475 -6.167942 0.0 -4e-06 -0.0 173.943314 -3.595625 -7.18231 13.508345 -0.071496 0.057827 -75.100464 1.778824 -4.205941 -6.583809 1.642627 2.149443 -0.999999 -0.0 -0.0 -6.229438 -5.764285 -17.422226 16.699198 0.061958 -0.073123 -77.260788 1.033321 -2.912745 -7.162513 0.594153 1.619302 -1.000002 -0.0 0.0 
0.0 0.0 0.0 0.0 -0.0 0.0 0.128307 100.10743 0.04461 90.71151 0.978257 91.91214 -2.864091 -0.436681 -0.079253 -12.474598 -0.809101 -0.168289 17.970055 0.144155 -3.053602 33.869766 1.229354 2.206499 -2.628317 -0.482003 1.289527 -28.089855 -0.306275 -0.267984 6e-06 0.0 -0.0 0.018771 0.005512 -0.030711 0.062488 0.043572 -0.033818 0.04686 -0.03376 -0.022257 1.127238 -72.734291 16.327917 8.448386 -71.57077 -16.135374 91.183044 0.277676 0.513537 -6.13878 12.584762 -105.798874 17.636627 -26.322733 52.41119 -19.46666 -14.3956 29.410389 1e-06 -8.774822 -0.0 15.68562 -18.143291 6.854455 -0.609777 -1.795654 -3.889328 -4.80709 -11.046811 -2.937849 3e-06 -20.976015 -0.0 -5.019974 -25.033552 -4.03188 6e-06 0.0 -0.0 -10.634535 -5.686973 -3.565589 10.573272 -17.922947 -3.1139 0.0 -13.821208 2e-06 -0.50178 -31.181505 -4.027015 -10.898803 -58.514595 6.822252 -13.982717 -7.1502 -2.87504 13.772731 -8.40149 -3.218243 0.347728 -34.211552 0.771658 -0.963032 -17.73337 2.621018 0.0 1e-06 -1e-06 -17.346424 -20.095217 -4.201779 21.757559 -1.638373 3.866427 -1e-06 -6.338824 2e-06 -1.697592 -22.591747 -6.194006 -0.0 -3e-06 -2e-06 177.622406 -79.1353 19.615652 21.280874 -66.384315 -28.653587 92.219444 -0.582884 1.379861 -8.148417 21.900476 -100.776543 22.182117 -20.375898 49.933331 -16.701807 -16.74353 28.476534 -1e-06 -12.690601 0.0 16.434959 -16.357828 2.99188 -0.105917 -1.513856 -4.275881 -5.039044 -5.612873 -2.953556 4e-06 -11.020523 -1e-06 -6.1113 -15.895334 -3.840471 -0.0 -1e-06 1e-06 -10.283373 -5.68029 -4.341837 11.028296 -11.302404 -2.372633 -1.384271 -14.238581 -6.320122 -0.625444 -26.924187 -3.827599 -4.848325 -50.155815 -1.939911 -13.708529 -7.363478 -3.720937 18.141151 -14.052737 -3.242673 6e-06 -18.787271 0.0 -0.429712 -8.456044 2.555502 -0.0 -1e-06 1e-06 -15.923539 -20.094486 -5.473584 30.419218 -7.190823 1.735927 2e-06 -8.162927 -1e-06 -1.861906 -22.861473 -6.167943 -0.0 -4e-06 -0.0 173.770874 -3.517524 -7.140189 13.525902 -0.069822 0.056653 -75.069427 1.676736 -4.169547 -6.591298 1.63833 2.143156 -0.999999 -0.0 0.0 -6.406163 -5.822065 -17.338903 16.652548 0.054488 -0.076171 -77.143036 1.028722 -2.945431 -7.147856 0.601388 1.620268 -1.000002 -0.0 0.0 
0.0 0.0 0.0 0.0 -0.0 0.0 0.233305 100.117661 -0.017132 90.720413 0.858905 91.860649 -2.813066 -0.448101 -0.092101 -12.457686 -0.794716 -0.179098 18.090069 0.163657 -3.076387 33.619926 1.082428 2.239801 -2.636608 -0.485419 1.359935 -28.984468 -0.410264 -0.123829 6e-06 0.0 -0.0 0.018846 0.00639 -0.008181 0.060301 0.036125 -0.012278 0.044583 -0.024938 0.002446 -0.345284 -73.528099 17.986189 8.256974 -71.417473 -15.14365 91.144089 0.023794 0.510466 -5.608913 11.359055 -103.325874 17.636623 -26.322737 52.411198 -19.466665 -14.395602 29.410395 -1e-06 -8.774822 -0.0 15.666938 -18.21633 6.913659 -0.609777 -1.795654 -3.889329 -4.807087 -11.046811 -2.937849 6e-06 -20.976017 -0.0 -5.019969 -25.03356 -4.03188 6e-06 -1e-06 0.0 -10.634535 -5.68697 -3.565587 10.573277 -17.922951 -3.113902 3e-06 -13.821209 3e-06 -0.501776 -31.181505 -4.027016 -10.94586 -58.487827 6.858775 -13.982713 -7.150198 -2.875042 13.77273 -8.401492 -3.218243 0.347736 -34.211555 0.771655 -0.963028 -17.73337 2.621018 0.0 2e-06 -2e-06 -17.346416 -20.095217 -4.20178 21.757557 -1.638376 3.866427 0.0 -6.338822 1e-06 -1.697587 -22.591745 -6.194006 0.0 -2e-06 -3e-06 174.08493 -80.047836 23.506481 19.571354 -66.118599 -25.565359 93.471779 -0.581419 1.366038 -8.416889 20.640684 -99.632423 22.182121 -20.375898 49.933319 -16.701813 -16.743528 28.47653 -2e-06 -12.690603 -2e-06 16.482132 -16.487637 2.940794 -0.105919 -1.513856 -4.275882 -5.039042 -5.612873 -2.953557 4e-06 -11.020526 -1e-06 -6.1113 -15.895338 -3.840471 1e-06 -0.0 -0.0 -10.283369 -5.680288 -4.341838 11.028294 -11.302406 -2.372632 -1.384269 -14.238581 -6.320123 -0.62544 -26.924191 -3.827603 -4.907174 -50.408798 -1.938975 -13.708522 -7.363476 -3.72094 18.141148 -14.052739 -3.242674 6e-06 -18.78727 0.0 -0.429712 -8.456043 2.555502 -1e-06 -1e-06 2e-06 -15.923536 -20.094484 -5.473583 30.41921 -7.190825 1.735926 3e-06 -8.162929 -1e-06 -1.861905 -22.861473 -6.167945 1e-06 -6e-06 0.0 173.619827 -3.42613 -7.088284 13.505009 -0.067848 0.044661 -75.023621 1.545396 -4.114775 -6.566244 1.630081 2.135397 -0.999999 -0.0 0.0 -6.566113 -5.889487 -17.249989 16.592199 0.047449 -0.083585 -77.031784 1.059674 -2.974706 -7.105391 0.607277 1.620601 -1.000002 0.0 -0.0 
0.0 0.0 0.0 0.0 -0.0 0.0 0.342211 100.122749 -0.055375 90.738258 0.743671 91.790375 -2.79512 -0.468167 -0.099065 -12.441857 -0.800612 -0.20754 18.213877 0.175287 -3.096156 33.370987 0.885549 2.294611 -2.653122 -0.462591 1.409118 -29.839785 -0.523236 0.078881 6e-06 -0.0 -0.0 0.019039 0.008162 -0.000409 0.053861 0.032219 -0.004257 0.038258 -0.017859 0.01131 -2.326748 -74.462486 20.1553 8.32661 -71.250404 -14.288585 91.037422 -0.210581 0.488226 -5.017956 10.135421 -100.694679 17.636633 -26.322733 52.411201 -19.466665 -14.395602 29.410395 -1e-06 -8.774823 -3e-06 15.641444 -18.284389 6.949264 -0.609776 -1.795653 -3.889328 -4.80709 -11.046809 -2.93785 5e-06 -20.976015 1e-06 -5.019972 -25.033558 -4.03188 7e-06 -0.0 0.0 -10.634537 -5.68697 -3.565587 10.573277 -17.922951 -3.1139 2e-06 -13.821209 3e-06 -0.501777 -31.181505 -4.027016 -10.917701 -58.432236 6.835668 -13.982716 -7.150197 -2.875043 13.772732 -8.401491 -3.218239 0.347734 -34.211544 0.771655 -0.963029 -17.73337 2.62102 1e-06 1e-06 -2e-06 -17.34642 -20.095217 -4.201783 21.757561 -1.638376 3.866427 1e-06 -6.338823 1e-06 -1.697588 -22.591745 -6.194005 -1e-06 -2e-06 -3e-06 169.255142 -81.076515 28.709972 17.741442 -65.92543 -22.286821 94.549332 -0.646364 1.333762 -8.781962 19.443174 -98.435226 22.182116 -20.375891 49.933308 -16.701811 -16.743528 28.476526 -3e-06 -12.6906 -1e-06 16.503983 -16.623095 2.917065 -0.10592 -1.513857 -4.275882 -5.039041 -5.612871 -2.953557 4e-06 -11.020524 -3e-06 -6.111294 -15.895334 -3.840472 0.0 -1e-06 1e-06 -10.283368 -5.680288 -4.341839 11.028292 -11.302406 -2.372632 -1.384268 -14.238579 -6.32012 -0.625437 -26.924191 -3.827602 -4.938181 -50.612831 -1.941563 -13.708522 -7.363476 -3.72094 18.141146 -14.052738 -3.242675 6e-06 -18.787266 0.0 -0.429711 -8.456043 2.555503 -0.0 -1e-06 0.0 -15.923532 -20.094482 -5.473582 30.419207 -7.190824 1.735927 2e-06 -8.162927 0.0 -1.861903 -22.861467 -6.167943 0.0 -4e-06 -0.0 173.468964 -3.335373 -7.067111 13.531262 -0.065143 0.032774 -75.015053 1.42168 -4.075547 -6.536506 1.618417 2.128042 -0.999998 0.0 0.0 -6.736014 -5.971282 -17.139437 16.586721 0.040721 -0.094601 -76.96286 1.107719 -2.999009 -7.057977 0.607046 1.619754 -1.000003 -0.0 0.0 
